<svg xmlns="http://www.w3.org/2000/svg" viewBox="0 0 1024 1024">
  <rect width="1024" height="1024" rx="160" fill="#ff9500"/>
  <circle cx="512" cy="512" r="440" fill="#ffd21a"/>
  <path d="M176 704c0-76 31-139 89-183 40-30 84-43 136-35 18 3 34 10 48 20l91 63-77 111c-25-18-54-25-82-18-32 8-53 34-53 66 0 56 56 86 142 86 77 0 130-22 158-64 31-47 25-101-18-174l-132-224c-44-75-47-158-9-229l33-61 13 92c6 45 24 80 53 104 59-19 129-22 210-9 31-24 50-58 57-101l14-86 48 67c50 70 58 148 25 222 21 31 28 68 19 104-14 57-67 99-140 111-45 7-91 5-135-8l52 89c64 110 68 220 11 303-56 82-163 124-316 124-177 0-297-86-297-218z" fill="#030303"/>
  <path d="M231 707c0-59 24-107 69-141 32-24 66-34 102-29 9 1 17 5 25 10l40 28-43 61c-19-14-38-19-58-14-55 13-80 98-29 160 38 47 105 70 196 70 93 0 158-29 196-85 43-64 36-139-20-234l-132-224c-35-59-37-122-7-178 7 55 31 100 72 134 57-21 129-23 216-4 42-32 66-76 75-132 37 51 43 109 18 163-13 28-34 51-63 70 21 20 29 51 20 79-11 36-49 61-101 69-59 9-121 0-175-25-17-8-22-30-9-43 39-40 60-78 52-101-6-17-34-28-73-31-30-2-51 5-62 20-13 19-10 47 10 82l110 188c52 89 57 172 13 236-45 66-137 101-265 101-145 0-244-67-244-181z" fill="#f3482a"/>
  <path d="M263 710c0-52 20-93 57-121 23-17 48-25 75-22-23 34-31 77-22 118 11 48 45 90 95 118-116-4-205-39-205-93zm224-387c-29-60-30-121-4-174 3 52 21 96 54 129-13 7-25 16-34 29-4 5-8 11-11 17zm88 53c5-31 31-44 76-41 28 2 48 9 52 20 5 15-16 45-52 72-11 8-26 6-34-6z" fill="#b93622" opacity=".68"/>
  <path d="M328 566c33-19 68-20 104-2l47 24-55 77c-17 24-52 27-73 7-28-28-36-72-23-106z" fill="#fb5031"/>
</svg>
