<?xml version="1.0" encoding="UTF-8"?>
<svg version="1.1" xmlns="http://www.w3.org/2000/svg" viewBox="0 0 1024 1024" width="1024" height="1024">
<path d="M0 0 C4.25996582 0.00917361 8.51938264 0.00228777 12.77929688 -0.02050781 C37.76478821 -0.15340149 62.09601444 0.30347653 86.78076172 4.44604492 C87.68685181 4.59324982 88.59294189 4.74045471 89.52648926 4.89212036 C94.49373391 5.71006193 99.41726833 6.65863511 104.34326172 7.69604492 C105.0546933 7.8432196 105.76612488 7.99039429 106.49911499 8.14202881 C111.60311015 9.19900102 116.69514778 10.30403008 121.78076172 11.44604492 C122.77015747 11.66810608 122.77015747 11.66810608 123.77954102 11.89465332 C154.6458048 18.88123464 185.14149843 28.95038065 213.78076172 42.44604492 C215.27639648 43.13947998 215.27639648 43.13947998 216.80224609 43.84692383 C246.71769894 57.73359172 275.17716887 73.90188212 301.78076172 93.44604492 C302.84166016 94.22334961 303.90255859 95.0006543 304.99560547 95.80151367 C320.92773219 107.63022799 336.24210218 120.08574924 350.74560547 133.62963867 C353.29995372 136.01237285 355.90591608 138.32847743 358.53076172 140.63354492 C363.47139047 145.06533815 368.19214315 149.71313938 372.90576172 154.38354492 C374.06350098 155.52182739 374.06350098 155.52182739 375.24462891 156.68310547 C375.96038086 157.39764893 376.67613281 158.11219238 377.41357422 158.84838867 C378.06213379 159.49283936 378.71069336 160.13729004 379.37890625 160.80126953 C380.78076172 162.44604492 380.78076172 162.44604492 380.78076172 164.44604492 C381.44076172 164.44604492 382.10076172 164.44604492 382.78076172 164.44604492 C384.19514578 166.01891176 385.53680573 167.65744488 386.84326172 169.32104492 C389.81811495 173.04908551 392.83894717 176.64762769 396.09326172 180.13354492 C402.18194469 186.83426189 407.44520464 194.14415808 412.78076172 201.44604492 C413.32313477 202.18483887 413.86550781 202.92363281 414.42431641 203.68481445 C437.27994051 234.85096384 457.21761805 267.74407983 472.7565918 303.18823242 C473.70195455 305.27231223 474.71495583 307.29818572 475.76904297 309.32885742 C497.74257919 352.74657723 509.56447023 407.95725884 513.56382751 456.07496643 C513.69676597 457.52797616 513.8484653 458.97960619 514.03213501 460.42707825 C515.1037393 469.19871498 514.94498199 478.01932972 514.94873047 486.84057617 C514.95195286 488.63685634 514.95531762 490.43313625 514.95881653 492.22941589 C514.96478307 495.98905035 514.96665923 499.74866193 514.96606445 503.50830078 C514.96598351 507.32215144 514.97287648 511.13588118 514.98657227 514.94970703 C515.12881578 555.15793492 515.12881578 555.15793492 512.78076172 572.44604492 C512.64532959 573.60740967 512.50989746 574.76877441 512.37036133 575.96533203 C506.34812205 626.41469051 492.14393281 680.2695937 468.78076172 725.44604492 C467.82249162 727.34869716 466.87078265 729.25452422 465.92041016 731.16113281 C465.23930111 732.52712027 464.55633219 733.8921818 463.87158203 735.25634766 C462.2055544 738.57627925 460.5555378 741.90169802 458.94873047 745.25073242 C445.67046542 772.74105634 428.24647538 798.2101514 409.78076172 822.44604492 C409.29269043 823.08719238 408.80461914 823.72833984 408.30175781 824.38891602 C391.29255431 846.61998606 372.21296599 868.65642325 350.77685547 886.72729492 C348.68918994 888.52489342 346.68080291 890.39710753 344.67089844 892.28076172 C338.82412385 897.74221068 332.73344446 902.75550965 326.39794922 907.63745117 C323.97567032 909.50481512 321.58902489 911.40651295 319.22607422 913.34838867 C310.17521588 920.77212641 300.74214332 927.45251795 291.00878906 933.95141602 C289.02172502 935.28439937 287.04892154 936.63504396 285.08154297 937.99682617 C205.8843763 992.47393788 107.74114763 1021.48333883 11.90380859 1020.9675293 C7.63549759 1020.9447411 3.36818502 1020.95832726 -0.90009212 1020.98128986 C-29.51887668 1021.11163464 -57.54746934 1018.85288827 -85.65673828 1013.25854492 C-86.77775436 1013.04019989 -86.77775436 1013.04019989 -87.92141724 1012.81744385 C-126.51469539 1005.27272721 -164.58105811 994.23980495 -200.21923828 977.44604492 C-201.71487305 976.75260986 -201.71487305 976.75260986 -203.24072266 976.04516602 C-233.1561755 962.15849812 -261.61564544 945.99020772 -288.21923828 926.44604492 C-289.28013672 925.66874023 -290.34103516 924.89143555 -291.43408203 924.09057617 C-307.36620875 912.26186185 -322.68057875 899.8063406 -337.18408203 886.26245117 C-339.73843028 883.87971699 -342.34439264 881.56361241 -344.96923828 879.25854492 C-349.76949777 874.954864 -354.34112733 870.43298314 -358.90673828 865.88354492 C-359.97649902 864.82067261 -359.97649902 864.82067261 -361.06787109 863.73632812 C-365.65628128 859.13458574 -369.98176828 854.37043507 -374.21923828 849.44604492 C-375.25258102 848.27777168 -376.28769116 847.11105894 -377.32470703 845.94604492 C-384.53501852 837.78569881 -391.22404302 829.36658304 -397.64941406 820.57788086 C-399.27814757 818.36604556 -400.93151858 816.17445721 -402.59033203 813.98510742 C-411.46782367 802.20818271 -419.48469315 789.99895262 -427.21923828 777.44604492 C-427.65606934 776.73963867 -428.09290039 776.03323242 -428.54296875 775.30541992 C-431.16298513 771.05387205 -433.71557905 766.76705824 -436.21923828 762.44604492 C-436.60499023 761.78282227 -436.99074219 761.11959961 -437.38818359 760.4362793 C-444.23705121 748.58988721 -450.22308316 736.39868885 -456.01318359 724.00512695 C-457.02551423 721.8571007 -458.06016191 719.72437211 -459.11767578 717.59838867 C-481.86344893 671.09235953 -495.72513814 615.2744183 -500.00231934 563.81706238 C-500.13525002 562.3640728 -500.28694448 560.91246304 -500.47061157 559.4650116 C-501.54221586 550.69337487 -501.38345855 541.87276012 -501.38720703 533.05151367 C-501.39042942 531.25523351 -501.39379419 529.4589536 -501.39729309 527.66267395 C-501.40325964 523.90303949 -501.40513579 520.14342792 -501.40454102 516.38378906 C-501.40446008 512.5699384 -501.41135304 508.75620866 -501.42504883 504.94238281 C-501.56729234 464.73415492 -501.56729234 464.73415492 -499.21923828 447.44604492 C-499.01609009 445.7039978 -499.01609009 445.7039978 -498.80883789 443.92675781 C-492.96436205 394.96655497 -479.6532551 341.7912814 -456.92236328 297.82495117 C-455.59027479 295.18216094 -454.31951036 292.5339203 -453.07861328 289.84838867 C-439.7537182 261.06958986 -423.21919982 233.8266789 -404.21923828 208.44604492 C-403.15371395 207.00885633 -402.08860951 205.57135635 -401.02392578 204.13354492 C-393.14965143 193.53257219 -384.99173986 183.24621684 -376.34228516 173.26586914 C-374.2954665 170.89965533 -372.31313172 168.57702944 -370.48876953 166.03198242 C-370.06982422 165.50862305 -369.65087891 164.98526367 -369.21923828 164.44604492 C-368.55923828 164.44604492 -367.89923828 164.44604492 -367.21923828 164.44604492 C-366.98672363 163.88828369 -366.75420898 163.33052246 -366.51464844 162.75585938 C-364.88300189 159.84650996 -362.85751702 157.84256002 -360.49267578 155.48901367 C-360.02616608 155.02296219 -359.55965637 154.55691071 -359.07901001 154.07673645 C-358.09117088 153.09191147 -357.10090933 152.10951111 -356.10839844 151.12939453 C-354.61490781 149.6539645 -353.12938078 148.17088753 -351.64501953 146.6862793 C-346.88130401 141.94052312 -342.05599668 137.31408568 -336.94921875 132.9375 C-334.42831414 130.76417143 -332.01975326 128.47477081 -329.59423828 126.19604492 C-324.23898681 121.23417038 -318.61657948 116.70865076 -312.83642578 112.25463867 C-310.41414688 110.38727472 -308.02750146 108.48557689 -305.66455078 106.54370117 C-296.61369244 99.11996343 -287.18061988 92.4395719 -277.44726562 85.94067383 C-275.46020158 84.60769047 -273.48739811 83.25704588 -271.52001953 81.89526367 C-235.60729933 57.19209116 -195.44986097 38.25615946 -154.21923828 24.44604492 C-152.62523193 23.91068115 -152.62523193 23.91068115 -150.99902344 23.36450195 C-127.88863133 15.70182873 -104.12193482 10.19482935 -80.21923828 5.63354492 C-78.81170288 5.35957886 -78.81170288 5.35957886 -77.37573242 5.08007812 C-73.99851675 4.46590997 -70.61469778 3.95042309 -67.21923828 3.44604492 C-66.06165009 3.25862228 -66.06165009 3.25862228 -64.88067627 3.06741333 C-43.36220363 -0.33116289 -21.72364147 -0.04900531 0 0 Z " fill="#FEB403" transform="translate(506.21923828125,1.553955078125)"/>
<path d="M0 0 C0.33 0 0.66 0 1 0 C1.81267941 3.65359039 2.21012592 7.17452203 2.41723633 10.90991211 C2.48433304 12.07981186 2.55142975 13.24971161 2.62055969 14.45506287 C2.69034531 15.71641556 2.76013092 16.97776825 2.83203125 18.27734375 C2.95114848 20.29147766 3.07028357 22.30561067 3.19035625 24.31968784 C3.48412783 29.2545333 3.77248873 34.18961928 4.04418945 39.12573242 C6.19636898 78.0095374 12.57316379 108.70979195 40.015625 137.609375 C42.79285513 139.55562288 44.59485724 139.84918948 48 140 C51.19175864 139.42712024 54.26738428 138.54360339 57.375 137.625 C62.08540068 136.26421758 66.65666308 134.95350297 71.5390625 134.3984375 C74.82358627 134.38361243 74.82358627 134.38361243 76 133 C77.78354626 132.72379293 79.57643756 132.50755222 81.37109375 132.31640625 C83.07168945 132.13174805 83.07168945 132.13174805 84.80664062 131.94335938 C86.00482422 131.81767578 87.20300781 131.69199219 88.4375 131.5625 C90.74870674 131.31388414 93.05990449 131.06518457 95.37109375 130.81640625 C96.60690186 130.6884668 97.84270996 130.56052734 99.1159668 130.42871094 C101.70730304 130.14268501 104.29513417 129.82291272 106.87817383 129.46972656 C120.80305734 127.60331491 134.73987191 127.6047053 148.77079773 127.62264252 C150.83186485 127.62502236 152.89291175 127.62392919 154.95397949 127.62261963 C178.60826677 127.6258453 202.34500353 128.25024027 225.578125 133.1328125 C230.75100682 134.21399873 230.75100682 134.21399873 236 134 C253.5107416 120.30429458 263.99201621 93.42366136 266.71484375 71.85546875 C267.74051222 62.40129091 268.25929104 52.89024416 268.65917969 43.39086914 C268.83347256 39.35832503 269.18939279 35.42148114 269.72583008 31.41723633 C270.3819868 25.63218943 270.67851199 19.80817416 271.0625 14 C271.1540881 12.63930885 271.24588328 11.27863162 271.33789062 9.91796875 C271.56062579 6.61211002 271.78126846 3.30612564 272 0 C275.23825801 2.45593392 277.8307138 4.78853588 280.19921875 8.08984375 C280.76318359 8.86714844 281.32714844 9.64445313 281.90820312 10.4453125 C282.49537109 11.26773438 283.08253906 12.09015625 283.6875 12.9375 C284.94031782 14.66615393 286.1942272 16.39401729 287.44921875 18.12109375 C288.05813965 18.96140137 288.66706055 19.80170898 289.29443359 20.66748047 C291.47842082 23.65428464 293.72780624 26.57968463 296 29.5 C310.30844837 48.02096853 323.82481934 66.34979301 333 88 C333.28359375 88.65484375 333.5671875 89.3096875 333.859375 89.984375 C345.79564566 118.13595674 348.77878858 160.27720212 337.8125 189.3125 C337.46832031 190.07175781 337.12414062 190.83101562 336.76953125 191.61328125 C335.51102636 195.51656291 335.20732465 199.05707175 336.78637695 202.92749023 C337.88162971 205.01198698 339.0511583 207.03590335 340.25 209.0625 C350.08584314 226.83772659 351.82885869 245.34828664 346.328125 264.90234375 C341.33024046 281.01475459 333.06588885 295.30787411 322 308 C321.278125 308.84433594 320.55625 309.68867188 319.8125 310.55859375 C291.96396125 342.43522471 252.25594012 357.69344367 210.72631836 360.79492188 C204.55370111 361.13463219 198.38760883 361.14821024 192.20703125 361.13037109 C190.00253426 361.12500617 187.79824091 361.13035588 185.59375 361.13671875 C163.26779972 361.15107507 163.26779972 361.15107507 153 358 C153.4832373 358.77819092 153.96647461 359.55638184 154.46435547 360.3581543 C159.46548498 368.44389571 164.33309763 376.60107219 169.125 384.8125 C169.86735141 386.08281056 170.60978457 387.35307335 171.35229492 388.62329102 C172.48145635 390.55521242 173.61040299 392.48725753 174.7386322 394.41972351 C177.08200697 398.43303551 179.43444052 402.44087787 181.79296875 406.4453125 C187.53291445 416.2060462 193.18152931 426.00780938 198.625 435.9375 C199.11009033 436.81913818 199.59518066 437.70077637 200.0949707 438.60913086 C204.11695348 446.01273478 207.52705156 453.5531604 210.5 461.4375 C211.9389129 465.25259933 213.43827646 469.0111011 215.0625 472.75 C217.08267827 477.76004211 218.25050069 482.92723321 219.42553711 488.18286133 C220.65465005 493.65538323 222.08747779 499.04403246 223.625 504.4375 C234.82093865 544.06616924 231.15975447 593.01244556 211.14355469 629.46948242 C210.68368164 630.28392822 210.22380859 631.09837402 209.75 631.9375 C209.26692383 632.80286377 208.78384766 633.66822754 208.28613281 634.55981445 C194.87984827 658.32287581 176.74061367 680.40562264 155 697 C154.37270996 697.48194824 153.74541992 697.96389648 153.09912109 698.46044922 C141.33484434 707.42543714 129.02386225 715.00651215 116 722 C115.24348145 722.40653809 114.48696289 722.81307617 113.70751953 723.23193359 C106.34719593 727.14453537 99.04294366 730.59276396 91.03466797 733.00561523 C88.06717671 733.97798787 85.28139756 735.13830964 82.42578125 736.3984375 C76.21251015 739.01347148 69.97178201 740.8169397 63.4375 742.4375 C61.69690308 742.87690918 61.69690308 742.87690918 59.92114258 743.32519531 C56.28462285 744.23352911 52.64379328 745.1213236 49 746 C47.83791016 746.28053223 46.67582031 746.56106445 45.47851562 746.85009766 C31.20267457 750.25399602 17.00199725 752.99992187 2.42480469 754.71191406 C0.12674292 754.98494194 -2.16701338 755.28028678 -4.4609375 755.5859375 C-16.79023573 757.20877551 -29.04169852 758.15327397 -41.484375 758.203125 C-42.62424866 758.20882507 -43.76412231 758.21452515 -44.9385376 758.22039795 C-47.3317372 758.22976956 -49.72494926 758.23635034 -52.11816406 758.24023438 C-55.72744808 758.24993936 -59.33616144 758.28103914 -62.9453125 758.3125 C-74.36325836 758.36386134 -85.25990638 758.13772295 -96.44580078 755.72680664 C-100.3601229 754.92635761 -104.14575082 754.53713379 -108.125 754.1875 C-124.98936812 752.42065591 -141.25792926 746.9511125 -156.96923828 740.78320312 C-158.77747835 740.08581984 -160.60456706 739.43776262 -162.43359375 738.796875 C-203.05602223 724.39391659 -237.81088985 690.9827586 -256.25 652.5 C-259.82175253 644.8538491 -262.51583532 637.05909239 -265 629 C-265.34160156 628.07960938 -265.68320312 627.15921875 -266.03515625 626.2109375 C-267.36067806 621.79968678 -267.94680668 617.36993361 -268.5625 612.8125 C-268.68818359 611.93013672 -268.81386719 611.04777344 -268.94335938 610.13867188 C-271.63876002 590.76283372 -272.19200356 571.34784978 -269 552 C-268.88221191 551.26458984 -268.76442383 550.52917969 -268.64306641 549.77148438 C-268.27237774 547.47079184 -267.88985935 545.17251821 -267.5 542.875 C-267.38164795 542.17584473 -267.2632959 541.47668945 -267.14135742 540.75634766 C-266.41518293 536.69469372 -265.40197793 532.87961133 -264 529 C-263.34 529 -262.68 529 -262 529 C-261.89945313 527.98421875 -261.79890625 526.9684375 -261.6953125 525.921875 C-257.39690294 501.67691323 -233.81007874 479.2821911 -214.50366211 465.64111328 C-204.95492053 459.1042503 -194.73003537 453.34898779 -184 449 C-183.03449219 448.59136719 -182.06898438 448.18273437 -181.07421875 447.76171875 C-178.05727445 446.48806481 -175.02972769 445.24285791 -172 444 C-171.33484375 443.70996094 -170.6696875 443.41992188 -169.984375 443.12109375 C-163.30060741 440.34587721 -156.08532631 439.30082163 -149 438 C-148.87882812 436.97519531 -148.75765625 435.95039062 -148.6328125 434.89453125 C-148.46389541 433.53381021 -148.2946048 432.1731355 -148.125 430.8125 C-148.04636719 430.13896484 -147.96773438 429.46542969 -147.88671875 428.77148438 C-147.39256035 424.87523549 -146.55529095 421.59347467 -145 418 C-144.79375 416.80375 -144.5875 415.6075 -144.375 414.375 C-141.91380193 404.34088477 -133.36722328 396.44612166 -125 391 C-115.39909898 385.6842469 -106.1551039 383.62272783 -95.25 383.75 C-94.36876465 383.75966797 -93.4875293 383.76933594 -92.57958984 383.77929688 C-78.02192774 384.04596956 -66.09871265 387.87983661 -52.59570312 393.03466797 C-48.76410689 394.4596239 -44.88995512 395.74454027 -41 397 C-41.40613525 396.30890137 -41.81227051 395.61780273 -42.23071289 394.90576172 C-50.2900456 381.13655839 -58.06421892 367.27916194 -65.1875 353 C-65.49656281 352.38332458 -65.80562561 351.76664917 -66.12405396 351.13128662 C-73.17725507 337.02111351 -80.57076312 321.87005748 -83.54296875 306.2578125 C-84.01035814 303.777744 -84.01035814 303.777744 -85.02734375 300.53515625 C-92.56704768 270.45976741 -80.51798809 238.71757891 -66 213 C-64.43907675 210.49763217 -62.86648122 208.2931055 -61 206 C-60.34 206 -59.68 206 -59 206 C-59.45890625 204.84628906 -59.9178125 203.69257813 -60.390625 202.50390625 C-73.57217006 168.06168882 -75.39801511 123.99936957 -60.65625 89.4765625 C-60.1096875 88.32929688 -59.563125 87.18203125 -59 86 C-58.70222656 85.35643555 -58.40445313 84.71287109 -58.09765625 84.04980469 C-51.53929392 69.93299781 -43.81203192 56.90160223 -34.0234375 44.80078125 C-30.52070419 40.44971154 -27.23301848 35.94636038 -23.9375 31.4375 C-18.39676954 23.8719828 -12.75500982 16.40368701 -7 9 C-6.29617188 8.07832031 -5.59234375 7.15664062 -4.8671875 6.20703125 C-4.23039062 5.37558594 -3.59359375 4.54414063 -2.9375 3.6875 C-2.38964844 2.96949219 -1.84179688 2.25148437 -1.27734375 1.51171875 C-0.64505859 0.76341797 -0.64505859 0.76341797 0 0 Z " fill="#ED4422" transform="translate(468,133)"/>
<path d="M0 0 C0.33 0 0.66 0 1 0 C1.81267941 3.65359039 2.21012592 7.17452203 2.41723633 10.90991211 C2.48433304 12.07981186 2.55142975 13.24971161 2.62055969 14.45506287 C2.69034531 15.71641556 2.76013092 16.97776825 2.83203125 18.27734375 C2.95114848 20.29147766 3.07028357 22.30561067 3.19035625 24.31968784 C3.48412783 29.2545333 3.77248873 34.18961928 4.04418945 39.12573242 C6.19636898 78.0095374 12.57316379 108.70979195 40.015625 137.609375 C42.79285513 139.55562288 44.59485724 139.84918948 48 140 C51.19175864 139.42712024 54.26738428 138.54360339 57.375 137.625 C62.08540068 136.26421758 66.65666308 134.95350297 71.5390625 134.3984375 C74.82358627 134.38361243 74.82358627 134.38361243 76 133 C77.78354626 132.72379293 79.57643756 132.50755222 81.37109375 132.31640625 C83.07168945 132.13174805 83.07168945 132.13174805 84.80664062 131.94335938 C86.00482422 131.81767578 87.20300781 131.69199219 88.4375 131.5625 C90.74870674 131.31388414 93.05990449 131.06518457 95.37109375 130.81640625 C96.60690186 130.6884668 97.84270996 130.56052734 99.1159668 130.42871094 C101.70730304 130.14268501 104.29513417 129.82291272 106.87817383 129.46972656 C120.80305734 127.60331491 134.73987191 127.6047053 148.77079773 127.62264252 C150.83186485 127.62502236 152.89291175 127.62392919 154.95397949 127.62261963 C178.60826677 127.6258453 202.34500353 128.25024027 225.578125 133.1328125 C230.75100682 134.21399873 230.75100682 134.21399873 236 134 C253.5107416 120.30429458 263.99201621 93.42366136 266.71484375 71.85546875 C267.74051222 62.40129091 268.25929104 52.89024416 268.65917969 43.39086914 C268.83347256 39.35832503 269.18939279 35.42148114 269.72583008 31.41723633 C270.3819868 25.63218943 270.67851199 19.80817416 271.0625 14 C271.1540881 12.63930885 271.24588328 11.27863162 271.33789062 9.91796875 C271.56062579 6.61211002 271.78126846 3.30612564 272 0 C275.23825801 2.45593392 277.8307138 4.78853588 280.19921875 8.08984375 C280.76318359 8.86714844 281.32714844 9.64445313 281.90820312 10.4453125 C282.49537109 11.26773438 283.08253906 12.09015625 283.6875 12.9375 C284.94031782 14.66615393 286.1942272 16.39401729 287.44921875 18.12109375 C288.05813965 18.96140137 288.66706055 19.80170898 289.29443359 20.66748047 C291.47842082 23.65428464 293.72780624 26.57968463 296 29.5 C310.30844837 48.02096853 323.82481934 66.34979301 333 88 C333.28359375 88.65484375 333.5671875 89.3096875 333.859375 89.984375 C345.79564566 118.13595674 348.77878858 160.27720212 337.8125 189.3125 C337.46832031 190.07175781 337.12414062 190.83101562 336.76953125 191.61328125 C335.51102636 195.51656291 335.20732465 199.05707175 336.78637695 202.92749023 C337.88162971 205.01198698 339.0511583 207.03590335 340.25 209.0625 C350.08584314 226.83772659 351.82885869 245.34828664 346.328125 264.90234375 C341.33024046 281.01475459 333.06588885 295.30787411 322 308 C321.278125 308.84433594 320.55625 309.68867188 319.8125 310.55859375 C291.96396125 342.43522471 252.25594012 357.69344367 210.72631836 360.79492188 C204.55370111 361.13463219 198.38760883 361.14821024 192.20703125 361.13037109 C190.00253426 361.12500617 187.79824091 361.13035588 185.59375 361.13671875 C163.26779972 361.15107507 163.26779972 361.15107507 153 358 C153.4832373 358.77819092 153.96647461 359.55638184 154.46435547 360.3581543 C159.46548498 368.44389571 164.33309763 376.60107219 169.125 384.8125 C169.86735141 386.08281056 170.60978457 387.35307335 171.35229492 388.62329102 C172.48145635 390.55521242 173.61040299 392.48725753 174.7386322 394.41972351 C177.08200697 398.43303551 179.43444052 402.44087787 181.79296875 406.4453125 C187.53291445 416.2060462 193.18152931 426.00780938 198.625 435.9375 C199.11009033 436.81913818 199.59518066 437.70077637 200.0949707 438.60913086 C204.11695348 446.01273478 207.52705156 453.5531604 210.5 461.4375 C211.9389129 465.25259933 213.43827646 469.0111011 215.0625 472.75 C217.08267827 477.76004211 218.25050069 482.92723321 219.42553711 488.18286133 C220.65465005 493.65538323 222.08747779 499.04403246 223.625 504.4375 C234.82093865 544.06616924 231.15975447 593.01244556 211.14355469 629.46948242 C210.68368164 630.28392822 210.22380859 631.09837402 209.75 631.9375 C209.26692383 632.80286377 208.78384766 633.66822754 208.28613281 634.55981445 C194.87984827 658.32287581 176.74061367 680.40562264 155 697 C154.37270996 697.48194824 153.74541992 697.96389648 153.09912109 698.46044922 C141.33484434 707.42543714 129.02386225 715.00651215 116 722 C115.24348145 722.40653809 114.48696289 722.81307617 113.70751953 723.23193359 C106.34719593 727.14453537 99.04294366 730.59276396 91.03466797 733.00561523 C88.06717671 733.97798787 85.28139756 735.13830964 82.42578125 736.3984375 C76.21251015 739.01347148 69.97178201 740.8169397 63.4375 742.4375 C61.69690308 742.87690918 61.69690308 742.87690918 59.92114258 743.32519531 C56.28462285 744.23352911 52.64379328 745.1213236 49 746 C47.83791016 746.28053223 46.67582031 746.56106445 45.47851562 746.85009766 C31.20267457 750.25399602 17.00199725 752.99992187 2.42480469 754.71191406 C0.12674292 754.98494194 -2.16701338 755.28028678 -4.4609375 755.5859375 C-16.79023573 757.20877551 -29.04169852 758.15327397 -41.484375 758.203125 C-42.62424866 758.20882507 -43.76412231 758.21452515 -44.9385376 758.22039795 C-47.3317372 758.22976956 -49.72494926 758.23635034 -52.11816406 758.24023438 C-55.72744808 758.24993936 -59.33616144 758.28103914 -62.9453125 758.3125 C-74.36325836 758.36386134 -85.25990638 758.13772295 -96.44580078 755.72680664 C-100.3601229 754.92635761 -104.14575082 754.53713379 -108.125 754.1875 C-124.98936812 752.42065591 -141.25792926 746.9511125 -156.96923828 740.78320312 C-158.77747835 740.08581984 -160.60456706 739.43776262 -162.43359375 738.796875 C-203.05602223 724.39391659 -237.81088985 690.9827586 -256.25 652.5 C-259.82175253 644.8538491 -262.51583532 637.05909239 -265 629 C-265.34160156 628.07960938 -265.68320312 627.15921875 -266.03515625 626.2109375 C-267.36067806 621.79968678 -267.94680668 617.36993361 -268.5625 612.8125 C-268.68818359 611.93013672 -268.81386719 611.04777344 -268.94335938 610.13867188 C-271.63876002 590.76283372 -272.19200356 571.34784978 -269 552 C-268.88221191 551.26458984 -268.76442383 550.52917969 -268.64306641 549.77148438 C-268.27237774 547.47079184 -267.88985935 545.17251821 -267.5 542.875 C-267.38164795 542.17584473 -267.2632959 541.47668945 -267.14135742 540.75634766 C-266.41518293 536.69469372 -265.40197793 532.87961133 -264 529 C-263.34 529 -262.68 529 -262 529 C-261.89945313 527.98421875 -261.79890625 526.9684375 -261.6953125 525.921875 C-257.39690294 501.67691323 -233.81007874 479.2821911 -214.50366211 465.64111328 C-204.95492053 459.1042503 -194.73003537 453.34898779 -184 449 C-183.03449219 448.59136719 -182.06898438 448.18273437 -181.07421875 447.76171875 C-178.05727445 446.48806481 -175.02972769 445.24285791 -172 444 C-171.33484375 443.70996094 -170.6696875 443.41992188 -169.984375 443.12109375 C-163.30060741 440.34587721 -156.08532631 439.30082163 -149 438 C-148.87882812 436.97519531 -148.75765625 435.95039062 -148.6328125 434.89453125 C-148.46389541 433.53381021 -148.2946048 432.1731355 -148.125 430.8125 C-148.04636719 430.13896484 -147.96773438 429.46542969 -147.88671875 428.77148438 C-147.39256035 424.87523549 -146.55529095 421.59347467 -145 418 C-144.79375 416.80375 -144.5875 415.6075 -144.375 414.375 C-141.91380193 404.34088477 -133.36722328 396.44612166 -125 391 C-115.39909898 385.6842469 -106.1551039 383.62272783 -95.25 383.75 C-94.36876465 383.75966797 -93.4875293 383.76933594 -92.57958984 383.77929688 C-78.02192774 384.04596956 -66.09871265 387.87983661 -52.59570312 393.03466797 C-48.76410689 394.4596239 -44.88995512 395.74454027 -41 397 C-41.40613525 396.30890137 -41.81227051 395.61780273 -42.23071289 394.90576172 C-50.2900456 381.13655839 -58.06421892 367.27916194 -65.1875 353 C-65.49656281 352.38332458 -65.80562561 351.76664917 -66.12405396 351.13128662 C-73.17725507 337.02111351 -80.57076312 321.87005748 -83.54296875 306.2578125 C-84.01035814 303.777744 -84.01035814 303.777744 -85.02734375 300.53515625 C-92.56704768 270.45976741 -80.51798809 238.71757891 -66 213 C-64.43907675 210.49763217 -62.86648122 208.2931055 -61 206 C-60.34 206 -59.68 206 -59 206 C-59.45890625 204.84628906 -59.9178125 203.69257813 -60.390625 202.50390625 C-73.57217006 168.06168882 -75.39801511 123.99936957 -60.65625 89.4765625 C-60.1096875 88.32929688 -59.563125 87.18203125 -59 86 C-58.70222656 85.35643555 -58.40445313 84.71287109 -58.09765625 84.04980469 C-51.53929392 69.93299781 -43.81203192 56.90160223 -34.0234375 44.80078125 C-30.52070419 40.44971154 -27.23301848 35.94636038 -23.9375 31.4375 C-18.39676954 23.8719828 -12.75500982 16.40368701 -7 9 C-6.29617188 8.07832031 -5.59234375 7.15664062 -4.8671875 6.20703125 C-4.23039062 5.37558594 -3.59359375 4.54414063 -2.9375 3.6875 C-2.38964844 2.96949219 -1.84179688 2.25148437 -1.27734375 1.51171875 C-0.64505859 0.76341797 -0.64505859 0.76341797 0 0 Z M-21 68 C-22.2439478 69.52978422 -22.2439478 69.52978422 -23.42578125 71.55078125 C-24.1226001 72.68435059 -24.1226001 72.68435059 -24.83349609 73.84082031 C-25.56560303 75.06430176 -25.56560303 75.06430176 -26.3125 76.3125 C-27.06007568 77.55338379 -27.06007568 77.55338379 -27.82275391 78.81933594 C-31.33192464 84.71677239 -34.50540418 90.59596297 -37 97 C-37.42796875 98.0725 -37.8559375 99.145 -38.296875 100.25 C-50.47748523 132.34949049 -48.54699432 167.96793792 -34.8125 199.1875 C-34.21152938 200.45984784 -33.60759475 201.73080209 -33 203 C-32.41033481 204.35142151 -31.82660935 205.7054566 -31.25 207.0625 C-30.8375 208.031875 -30.425 209.00125 -30 210 C-30.66 210 -31.32 210 -32 210 C-35.23685782 213.46759106 -38.08884609 217.25777409 -41 221 C-41.61617187 221.76699219 -42.23234375 222.53398437 -42.8671875 223.32421875 C-58.65875795 244.17345808 -62.80812521 270.53619511 -61 296 C-60.07644133 301.91831472 -58.22596685 307.44941914 -56 313 C-55.56989624 314.12257202 -55.56989624 314.12257202 -55.13110352 315.26782227 C-52.54081238 321.93452863 -49.54827217 328.37471228 -46.4375 334.8125 C-45.91373779 335.89837402 -45.38997559 336.98424805 -44.8503418 338.10302734 C-37.59314205 353.05824907 -30.0418623 367.81529574 -21.2734375 381.94628906 C-19.82013985 384.29006587 -18.37888259 386.64106528 -16.9375 388.9921875 C-11.42352903 397.96482492 -5.82587661 406.87523619 -0.08544922 415.70458984 C43.94708835 483.44329359 43.94708835 483.44329359 55 514.4375 C56.12502015 517.58286883 57.27042482 520.71731586 58.45703125 523.83984375 C68.8499583 551.61427088 66.25020197 579.35052662 55.25 606.625 C44.50526197 629.14186136 27.87067617 645.91369004 4.25390625 654.3359375 C-10.19220742 659.19231272 -24.12952252 660.35406518 -39.26708984 660.31567383 C-41.86468502 660.31251255 -44.4611381 660.3360744 -47.05859375 660.36132812 C-57.74792093 660.40218132 -67.57573812 659.41920995 -78 657 C-79.40064697 656.68591187 -79.40064697 656.68591187 -80.82958984 656.36547852 C-102.27537557 651.35523707 -121.51319638 642.91435341 -137 627 C-137.67546875 626.32195313 -138.3509375 625.64390625 -139.046875 624.9453125 C-153.49754872 609.53552327 -159.0640993 589.05912472 -158.75927734 568.39135742 C-157.7349466 544.01595607 -147.08584203 520.00828189 -129.1015625 503.30859375 C-126.45845144 501.1108288 -123.7740704 499.02886205 -121 497 C-119.94039062 496.19755859 -119.94039062 496.19755859 -118.859375 495.37890625 C-116.26767505 493.45691028 -114.07875416 492.02625139 -111 491 C-111 495.29 -111 499.58 -111 504 C-110.34 504 -109.68 504 -109 504 C-108.95875 504.825 -108.9175 505.65 -108.875 506.5 C-107.4128488 512.34860481 -103.7849551 517.01893712 -98.8125 520.4375 C-92.73861687 523.81187952 -85.81054911 524.23459803 -79.07080078 522.50488281 C-74.96586432 521.21072566 -70.9762919 519.64698481 -67 518 C-67 517.34 -67 516.68 -67 516 C-66.27554688 515.73574219 -65.55109375 515.47148438 -64.8046875 515.19921875 C-48.29822086 508.14143984 -35.38912615 491.07004171 -25 477 C-24.42830078 476.23010742 -23.85660156 475.46021484 -23.26757812 474.66699219 C-19.70174008 469.86160091 -16.15027352 465.0461125 -12.63427734 460.20410156 C-11.52034119 458.70176879 -10.37857024 457.21977362 -9.21337891 455.75683594 C-8.65440918 455.05075195 -8.09543945 454.34466797 -7.51953125 453.6171875 C-7.01139893 452.99183105 -6.5032666 452.36647461 -5.97973633 451.72216797 C-5.65642334 451.15385254 -5.33311035 450.58553711 -5 450 C-6.14023109 446.57930673 -6.68590339 446.27136634 -9.62109375 444.43359375 C-10.38260742 443.9530957 -11.14412109 443.47259766 -11.92871094 442.97753906 C-12.75661133 442.46932617 -13.58451172 441.96111328 -14.4375 441.4375 C-15.28989258 440.90737305 -16.14228516 440.37724609 -17.02050781 439.83105469 C-24.84886019 435.00583269 -32.83171438 430.49750842 -40.92578125 426.13623047 C-42.86753809 425.07256094 -44.77920646 423.9699688 -46.6875 422.84765625 C-63.75900353 412.98552075 -87.13659545 404.7621913 -107 409.75390625 C-109.16158455 410.68499419 -111.04847754 411.6899502 -113 413 C-113.928125 413.61875 -114.85625 414.2375 -115.8125 414.875 C-121.08035518 419.99234503 -123.11439489 424.63621551 -123.2409668 431.90307617 C-123.26878549 438.9381979 -123.25700973 444.60661054 -120 451 C-119.443125 452.155 -118.88625 453.31 -118.3125 454.5 C-117.879375 455.325 -117.44625 456.15 -117 457 C-117.54785156 457.03738281 -118.09570312 457.07476563 -118.66015625 457.11328125 C-137.67001498 458.68970856 -157.75710125 463.78909583 -175 472 C-175.61681641 472.29132813 -176.23363281 472.58265625 -176.86914062 472.8828125 C-191.05232809 479.62496538 -203.30313108 487.51849335 -215 498 C-215.75410156 498.66902344 -216.50820312 499.33804687 -217.28515625 500.02734375 C-223.20946988 505.5983186 -227.61641303 512.2054402 -232 519 C-232.72703125 520.12535156 -232.72703125 520.12535156 -233.46875 521.2734375 C-248.61834232 546.6198708 -250.95259834 585.38411555 -243.8125 613.75 C-242.95765915 616.86315175 -241.99762226 619.93013553 -241 623 C-240.51497503 624.60448865 -240.03320221 626.209964 -239.5546875 627.81640625 C-238.42482137 631.56382867 -237.234556 635.28582515 -236 639 C-235.34 639 -234.68 639 -234 639 C-233.91492188 639.67160156 -233.82984375 640.34320312 -233.7421875 641.03515625 C-227.79662762 664.78610333 -202.78097134 687.471507 -183 700 C-182.38237793 700.39268066 -181.76475586 700.78536133 -181.12841797 701.18994141 C-158.09072264 715.69210889 -132.00922117 725.93371881 -105 730 C-104.12746582 730.13535156 -103.25493164 730.27070312 -102.35595703 730.41015625 C-81.9476293 733.44627537 -61.66052979 733.41180528 -41.08459473 733.03710938 C-39.2384429 733.00424469 -37.39217276 732.97818046 -35.54589844 732.953125 C4.52571991 732.32516624 44.5999292 724.32599279 82 710 C82.97582031 709.65839844 83.95164062 709.31679688 84.95703125 708.96484375 C95.15671945 705.29518849 104.52479553 700.22076505 114 695 C115.21260498 694.33774414 115.21260498 694.33774414 116.44970703 693.66210938 C134.12336181 683.95669734 149.89306434 672.47817081 164 658 C164.54527344 657.51144531 165.09054687 657.02289062 165.65234375 656.51953125 C170.52578217 652.00487357 174.36595993 646.96494158 178.1875 641.5625 C178.68644775 640.85899414 179.18539551 640.15548828 179.69946289 639.43066406 C185.99423108 631.31280777 185.99423108 631.31280777 189 622 C189.66 622 190.32 622 191 622 C193.08135307 616.70201036 194.71291613 611.54436129 196 606 C196.66 606 197.32 606 198 606 C210.4970915 568.84109496 208.79748703 529.43772767 195 493 C194.6390625 492.04222656 194.278125 491.08445312 193.90625 490.09765625 C192.97288759 487.71532397 191.99304027 485.3579761 191 483 C190.46826172 481.66195312 190.46826172 481.66195312 189.92578125 480.296875 C187.42380359 474.07933582 184.60502498 468.07112386 181.56420898 462.10327148 C179.2499282 457.54534702 177.01687063 452.95561542 174.828125 448.3359375 C167.48647666 432.85054703 159.66836074 417.79559956 151 403 C149.83162069 400.99372862 148.6636601 398.98721334 147.49609375 396.98046875 C145.1366205 392.93005588 142.77272152 388.88226494 140.40625 384.8359375 C128.07647778 363.73198765 116.31900584 342.350824 105 320.6875 C104.47220947 319.68041992 103.94441895 318.67333984 103.40063477 317.63574219 C100.04722655 311.18114242 96.9542945 304.64584961 94 298 C93.43532221 296.76152426 92.87027868 295.52321513 92.3046875 294.28515625 C85.86164241 279.76189888 81.93678808 266.07902732 87.625 250.6875 C92.2511994 239.1050184 99.28101473 230.62473454 110.81933594 225.13427734 C127.15490905 218.29563191 144.07733764 218.39532609 161 223 C161.94528564 223.2487085 161.94528564 223.2487085 162.90966797 223.50244141 C174.23036983 226.48691322 174.23036983 226.48691322 178 229 C179.32 229 180.64 229 182 229 C182 229.66 182 230.32 182 231 C183.82602543 232.30707661 183.82602543 232.30707661 186.125 233.625 C194.90576923 239.47884615 194.90576923 239.47884615 197 245 C199.03230895 258.35904415 196.80906792 272.02487565 189.14453125 283.20703125 C180.0562868 295.04326947 169.47899014 304.14882333 156.7331543 311.85620117 C153.46397336 313.87088066 150.88121978 315.60591117 149 319 C148.49412944 321.21511423 148.49412944 321.21511423 148.5625 323.5 C148.54316406 324.2528125 148.52382813 325.005625 148.50390625 325.78125 C149.20925746 328.93589165 150.50483416 329.95070314 153 332 C155.551909 332.94421919 157.84099557 333.64386578 160.47265625 334.23046875 C161.21532242 334.39927048 161.95798859 334.5680722 162.72315979 334.74198914 C171.92130068 336.63998794 181.09061445 336.46974382 190.4375 336.3125 C192.18293187 336.30095807 193.92837636 336.29118811 195.67382812 336.28320312 C204.05105292 336.22499901 212.42125978 336.00502291 220.7890625 335.6015625 C221.50174789 335.57141556 222.21443329 335.54126862 222.94871521 335.51020813 C229.11689637 335.17140444 234.69772432 333.7299199 240.62109375 331.96484375 C243.60482614 331.11284155 246.43525028 330.56282139 249.5 330.125 C256.72136174 328.91964603 263.30051603 325.83606665 270 323 C271.97715014 322.20331051 273.95601912 321.41085644 275.9375 320.625 C276.73027344 320.30789063 277.52304687 319.99078125 278.33984375 319.6640625 C279.16162109 319.33535156 279.16162109 319.33535156 280 319 C280 318.34 280 317.68 280 317 C280.86238281 316.75121094 281.72476563 316.50242187 282.61328125 316.24609375 C297.04707986 310.93538815 309.04550731 297.66666499 317 285 C317.52207031 284.17628906 318.04414062 283.35257813 318.58203125 282.50390625 C322.62742038 275.36039541 323.4644273 268.08447528 323 260 C323.66 260 324.32 260 325 260 C325.74565072 240.81956918 325.1593827 224.43371781 314 208 C312.83020209 206.79505795 311.64378174 205.60591639 310.4375 204.4375 C308.94140625 202.79296875 308.94140625 202.79296875 308 201 C308.24406827 197.37652497 309.57518378 194.31306748 311 191 C323.56089753 161.13634 321.54324117 126.31426491 310.03857422 96.50439453 C306.04882637 86.88360622 300.86836243 75.9042466 294 68 C293.34 68 292.68 68 292 68 C291.84144531 69.17433594 291.68289063 70.34867187 291.51953125 71.55859375 C286.42305312 107.48970488 271.07349082 135.63807112 244.47265625 160.34765625 C242 162 242 162 239.66796875 162.09375 C238.84941406 161.8978125 238.03085937 161.701875 237.1875 161.5 C236.21683594 161.28214844 235.24617188 161.06429687 234.24609375 160.83984375 C232.00608132 160.26029781 229.76924688 159.66837655 227.53515625 159.06640625 C219.53417229 156.94437026 211.65248711 155.38228649 203.4375 154.3125 C202.5290332 154.19334229 201.62056641 154.07418457 200.68457031 153.95141602 C185.90306661 152.13455565 171.22083556 151.83964843 156.34936523 151.86962891 C153.20356386 151.87497271 150.05790634 151.86966168 146.91210938 151.86328125 C129.51610414 151.85533084 112.46638748 152.43794698 95.25 155.0625 C94.56031128 155.16615875 93.87062256 155.2698175 93.16003418 155.37661743 C77.23254795 157.80403328 60.21347835 160.93957999 45.29125977 167.12231445 C42.37939663 168.23772713 40.93838881 167.97477651 38 167 C12.65734147 151.2019791 -7.62492875 121.50629966 -14.56933594 92.6328125 C-16.4558359 84.46328145 -18.05196982 76.33318532 -19 68 C-19.66 68 -20.32 68 -21 68 Z " fill="#030200" transform="translate(468,133)"/>
<path d="M0 0 C4.00314911 1.48789133 5.20589023 3.57754534 7.171875 7.28515625 C7.7498584 8.36434326 8.3278418 9.44353027 8.92333984 10.55541992 C9.5261377 11.71275635 10.12893555 12.87009277 10.75 14.0625 C11.38067137 15.25970633 12.01169565 16.45672681 12.64306641 17.65356445 C14.44941856 21.09179655 16.22757894 24.54414535 18 28 C18.42958008 28.83176758 18.85916016 29.66353516 19.30175781 30.52050781 C31.67709163 54.71705603 40.54599503 81.69964453 32.15625 108.63671875 C31.7746875 109.74660156 31.393125 110.85648438 31 112 C30.42765625 113.77310547 30.42765625 113.77310547 29.84375 115.58203125 C28.92537162 118.39948494 27.97913602 121.20321254 27 124 C26.34 124 25.68 124 25 124 C24.814375 124.804375 24.62875 125.60875 24.4375 126.4375 C22.45474485 131.35128451 19.35900436 134.94651795 16 139 C15.51273438 139.63421875 15.02546875 140.2684375 14.5234375 140.921875 C10.693166 145.75786025 6.28323967 148.87176598 1 152 C0.319375 152.4434375 -0.36125 152.886875 -1.0625 153.34375 C-15.20016993 161.62438524 -32.68862722 161.37076051 -48.5625 161.375 C-49.33599792 161.37690338 -50.10949585 161.37880676 -50.90643311 161.38076782 C-60.12783772 161.37820068 -68.94395469 160.92509006 -78 159 C-78.73549072 158.84885742 -79.47098145 158.69771484 -80.22875977 158.54199219 C-100.94327227 154.06831803 -120.43930714 144.90668823 -132.46484375 126.68359375 C-140.52360227 112.59614565 -142.67987975 95.19919388 -138.76171875 79.33203125 C-136.43984527 72.22352628 -133.83575763 64.80290915 -129 59 C-125.30497908 59 -124.78153843 59.81277183 -122.0625 62.1875 C-111.77156905 70.4774166 -99.26595399 73.27472418 -86.22265625 72.31689453 C-57.87651383 68.27545199 -33.71688668 44.62559729 -17 23 C-16.47841309 22.3282373 -15.95682617 21.65647461 -15.41943359 20.96435547 C-7.41232654 10.69653769 -7.41232654 10.69653769 0 0 Z " fill="#FDA901" transform="translate(474,608)"/>
<path d="M0 0 C0.66 0 1.32 0 2 0 C2.48080596 2.99974538 2.95968682 5.99977769 3.4375 9 C3.57220703 9.83917969 3.70691406 10.67835938 3.84570312 11.54296875 C4.24048602 14.02721233 4.62246778 16.51308139 5 19 C5.12181641 19.76634766 5.24363281 20.53269531 5.36914062 21.32226562 C6.08140556 26.18424799 5.65416861 27.91666368 3 32 C2.49229425 34.66037815 2.26991055 37.30089445 2 40 C1.67 40.33 1.34 40.66 1 41 C-0.286566 48.40003565 -0.18368702 55.81999142 -0.1875 63.3125 C-0.20586914 65.19485352 -0.20586914 65.19485352 -0.22460938 67.11523438 C-0.24180128 78.1123225 1.46543941 88.10523222 4.5625 98.625 C4.9347168 99.89827148 4.9347168 99.89827148 5.31445312 101.19726562 C7.47663818 108.16084962 10.51543583 114.38418506 14.27954102 120.61962891 C17.11607232 125.45542737 17.11607232 125.45542737 16.53125 128.19921875 C14.65067352 130.41081507 12.64160088 132.35049539 10.5 134.3125 C1.09275927 143.55637331 -5.62274155 154.56992258 -10 167 C-10.37898438 168.0209375 -10.75796875 169.041875 -11.1484375 170.09375 C-17.77715365 188.71056982 -17.29530857 210.6940655 -10 229 C-9.68885254 229.7940625 -9.37770508 230.588125 -9.05712891 231.40625 C5.8119356 268.80616772 27.53807103 303.13454057 49.55737305 336.65942383 C62.79201645 356.8397594 75.18238804 377.45947372 86.3125 398.875 C86.88734131 399.9798877 87.46218262 401.08477539 88.05444336 402.22314453 C93.26428708 412.33765916 98.41117487 422.51639032 102.0625 433.3125 C102.30508545 434.01544189 102.5476709 434.71838379 102.79760742 435.44262695 C104.52927061 440.50445506 106.19271388 445.58883475 107.8125 450.6875 C108.0194751 451.33436768 108.2264502 451.98123535 108.43969727 452.64770508 C116.45282267 478.40779454 109.18494322 509.60484528 97.19921875 533.0625 C87.49827384 550.97735155 73.43262402 565.47067322 55.75 575.5 C54.99340088 575.93376953 54.23680176 576.36753906 53.45727539 576.81445312 C48.89701705 579.31069997 45.19383948 580.61527115 40 581 C42.80075322 578.03029182 45.66424934 575.80964955 49.0625 573.5625 C69.52677511 558.82822192 80.47952106 533.55919331 84.8125 509.375 C88.13825016 488.14260194 86.5083005 466.1996038 76 447 C74.60611054 443.8320694 73.26285621 440.65370817 71.97167969 437.44262695 C68.89084133 429.85897559 65.40528352 422.57047267 61.625 415.3125 C61.01994629 414.14912109 60.41489258 412.98574219 59.79150391 411.78710938 C53.37511223 399.55121414 46.28758466 387.73503564 39 376 C38.46632813 375.13938965 37.93265625 374.2787793 37.3828125 373.39208984 C31.88985169 364.5618765 26.2473734 355.83247947 20.5625 347.125 C1.31415375 317.60722847 -16.54497947 287.18088513 -31 255 C-31.39574219 254.11957031 -31.79148437 253.23914063 -32.19921875 252.33203125 C-33.22437693 249.9129821 -34.12120012 247.47595484 -35 245 C-35.66708984 243.30037109 -35.66708984 243.30037109 -36.34765625 241.56640625 C-45.11388165 217.47897557 -40.27831072 191.47317611 -29.87158203 168.82421875 C-25.98487674 160.68935547 -20.7353693 153.90798529 -15 147 C-14.30132812 146.07832031 -13.60265625 145.15664063 -12.8828125 144.20703125 C-12.26148438 143.47871094 -11.64015625 142.75039063 -11 142 C-10.34 142 -9.68 142 -9 142 C-9.31308105 141.41081787 -9.62616211 140.82163574 -9.94873047 140.21459961 C-26.70566693 107.82987473 -29.51105719 71.45172051 -18.90527344 36.72290039 C-17.27594156 31.62304305 -15.46444106 26.7515842 -13 22 C-12.55914062 21.1440625 -12.11828125 20.288125 -11.6640625 19.40625 C-8.14692259 12.78137271 -4.50819024 6.0070473 0 0 Z " fill="#B13319" transform="translate(447,201)"/>
<path d="M0 0 C-0.99966797 0.61875 -0.99966797 0.61875 -2.01953125 1.25 C-29.6941641 18.59018953 -46.39975505 38.03972215 -54.421875 69.98828125 C-57.920755 88.21555479 -57.82901755 109.08027223 -53 127 C-52.82839355 127.67353516 -52.65678711 128.34707031 -52.47998047 129.04101562 C-43.30233857 164.83299885 -21.68241795 192.32968815 9.83984375 211.34765625 C13.18570754 213.3121107 16.5681742 215.1886504 20 217 C20.72106934 217.38752441 21.44213867 217.77504883 22.18505859 218.17431641 C28.83080419 221.64218486 35.63618428 224.16220809 42.75 226.5 C43.93158691 226.88945801 45.11317383 227.27891602 46.33056641 227.68017578 C53.6168736 230.0311981 60.91336792 232.15709574 68.375 233.875 C69.52693848 234.14280273 69.52693848 234.14280273 70.70214844 234.41601562 C73.45934667 235.01015175 76.22143264 235.51426557 79 236 C79.69445221 236.12454559 80.38890442 236.24909119 81.10440063 236.37741089 C94.82834805 238.78065555 108.24660329 239.44338451 122.1652832 239.33618164 C125.43140452 239.31254411 128.69670481 239.31565837 131.96289062 239.32226562 C145.74260549 239.30367651 159.30588896 238.50122895 173 237 C174.41411415 236.84973862 174.41411415 236.84973862 175.85679626 236.69644165 C202.69162076 233.83241324 232.13603765 228.45645425 256.89453125 217.38671875 C259.29616144 216.31429269 261.69576623 215.30742201 264.13671875 214.33203125 C282.72839183 206.84619658 300.79785139 197.86825966 317 186 C317.58007812 185.57928223 318.16015625 185.15856445 318.7578125 184.72509766 C332.00197771 175.02170459 343.43482104 163.79249304 353.01171875 150.44921875 C355 148 355 148 358 147 C357.67 148.65 357.34 150.3 357 152 C356.34 152 355.68 152 355 152 C354.731875 152.88558594 354.46375 153.77117187 354.1875 154.68359375 C349.64881848 167.3590563 338.72967266 179.88555255 329 189 C327.81083984 190.18916016 327.81083984 190.18916016 326.59765625 191.40234375 C311.65760644 206.34239356 295.07207678 216.92574576 276.42626953 226.71044922 C274.364775 227.80612381 272.33144779 228.93280892 270.30859375 230.09765625 C263.19609998 234.14794995 256.02033635 236.95481422 248.2890625 239.5390625 C245.584571 240.44378074 242.9209397 241.40108761 240.2734375 242.4609375 C227.82558252 247.41387348 214.98418548 250.75395363 202 254 C201.17693359 254.20898926 200.35386719 254.41797852 199.50585938 254.63330078 C176.05408888 260.47579722 151.10461446 262.63899807 127 263 C125.59194225 263.03062372 124.18390272 263.06209234 122.77587891 263.09423828 C85.54432593 263.90397042 50.57557347 261.15268062 15.81982422 246.74462891 C13.50369611 245.79692422 11.15726413 244.93649254 8.8125 244.0625 C-9.22679983 236.72343443 -25.12499014 225.53707982 -39 212 C-39.83789062 211.23558594 -40.67578125 210.47117187 -41.5390625 209.68359375 C-52.09032057 199.7855088 -61.94290673 186.201904 -68 173 C-68 171.68 -68 170.36 -68 169 C-68.66 169 -69.32 169 -70 169 C-71.81561729 163.54104402 -73.55851148 158.06647712 -75.22167969 152.55908203 C-75.69384894 151.00661085 -76.17609849 149.45709319 -76.67675781 147.91357422 C-84.28604636 124.08448641 -83.79729407 85.71724256 -73 63 C-72.73590332 62.41089844 -72.47180664 61.82179688 -72.19970703 61.21484375 C-58.86683825 31.55676527 -33.81859892 12.0033941 -4.2578125 -0.3203125 C-2 -1 -2 -1 0 0 Z " fill="#B13319" transform="translate(302,603)"/>
<path d="M0 0 C1.20527344 0.30035156 2.41054688 0.60070312 3.65234375 0.91015625 C16.237888 4.36706555 29.09343554 11.42640525 36.65234375 22.3984375 C42.44949112 33.58945243 40.75138475 46.45589482 37.30859375 58.15625 C29.83048909 81.16932915 10.99936011 95.28188066 -9 107 C-8.67 107.99 -8.34 108.98 -8 110 C5.63161814 111.97253389 19.0530811 112.30167544 32.81494141 112.05322266 C35.74559116 112.0042512 38.67449136 111.99043271 41.60546875 111.98046875 C56.53233836 111.77532109 70.59195696 108.75872475 85 105 C85.76957031 104.80422363 86.53914062 104.60844727 87.33203125 104.40673828 C107.6730939 99.06967791 126.6346811 86.97131161 139 70 C140.49013054 74.3340398 139.19888132 76.60258378 137.2890625 80.578125 C128.9684534 96.21078453 115.82422331 109.10023173 100 117 C99.34 117 98.68 117 98 117 C98 117.66 98 118.32 98 119 C96.80117188 119.45439453 96.80117188 119.45439453 95.578125 119.91796875 C94.47984375 120.33691406 93.3815625 120.75585938 92.25 121.1875 C91.05632812 121.64253906 89.86265625 122.09757812 88.6328125 122.56640625 C85.4165659 123.83561324 82.27915988 125.21121444 79.125 126.625 C73.39537277 129.04703529 67.68655611 130.22435843 61.578125 131.3125 C58.5040646 131.90314916 55.66298402 132.67576583 52.6875 133.625 C48.1152386 134.91125568 43.65352413 135.34130062 38.9296875 135.56640625 C38.14807755 135.60614059 37.36646759 135.64587494 36.56117249 135.68681335 C28.06324956 136.08937448 19.56564258 136.25624963 11.05883789 136.29516602 C9.30940698 136.30673439 7.56001266 136.32726208 5.81079102 136.35668945 C-3.50207052 136.51194718 -12.41194877 136.30232079 -21.52734375 134.23046875 C-22.22589981 134.07475906 -22.92445587 133.91904938 -23.6441803 133.75862122 C-27.7991596 132.6929267 -30.34154611 131.38989132 -33 128 C-33.53125 125.81640625 -33.53125 125.81640625 -33.5 123.5625 C-33.5103125 122.82128906 -33.520625 122.08007812 -33.53125 121.31640625 C-32.65731845 117.50580763 -30.5649449 115.10112639 -27.38134766 112.86108398 C-25.4619202 111.68190384 -23.5173331 110.55693434 -21.5625 109.4375 C-5.96474414 100.07884649 9.22001133 86.01687372 14.3125 68 C15.75562206 60.01281951 16.87394196 49.98055297 13.97265625 42.26953125 C10.84409166 37.78901077 6.41356701 34.97699173 1.7578125 32.2265625 C1.17773438 31.82179688 0.59765625 31.41703125 0 31 C0 30.34 0 29.68 0 29 C-0.78375 28.9175 -1.5675 28.835 -2.375 28.75 C-5.4351723 28.1168609 -7.77788757 27.32813461 -10.625 26.125 C-29.37754798 18.34679382 -50.85263753 17.14447007 -69.75 24.8125 C-76.50385587 28.01813449 -81.83565007 32.68375743 -87 38 C-87.99 38.495 -87.99 38.495 -89 39 C-86.33989962 24.40818724 -77.76140969 14.43827943 -66.2109375 5.63671875 C-46.67153912 -7.79142099 -21.73846386 -5.7356218 0 0 Z " fill="#B13319" transform="translate(650,333)"/>
<path d="M0 0 C1.98 0.99 1.98 0.99 4 2 C2.6999287 4.72361936 1.26842812 7.18600798 -0.46875 9.65234375 C-0.952229 10.33973633 -1.43570801 11.02712891 -1.93383789 11.73535156 C-2.45067139 12.46206055 -2.96750488 13.18876953 -3.5 13.9375 C-4.03681396 14.69385742 -4.57362793 15.45021484 -5.12670898 16.22949219 C-35.48195141 58.774423 -35.48195141 58.774423 -56 70 C-56.66 70 -57.32 70 -58 70 C-58 70.66 -58 71.32 -58 72 C-67.30298743 75.8533084 -76.18148187 79.24518257 -86.3125 76.3359375 C-92.3570222 73.70290699 -96.45886177 69.08227647 -99.375 63.25 C-100 61 -100 61 -100 58 C-100.66 58 -101.32 58 -102 58 C-102 53.71 -102 49.42 -102 45 C-107.83081345 48.10149652 -112.9009901 51.81152759 -118 56 C-118.53826416 56.42458496 -119.07652832 56.84916992 -119.63110352 57.28662109 C-124.19682408 61.00210387 -127.56951442 65.0675849 -130.9375 69.875 C-131.43056641 70.56335938 -131.92363281 71.25171875 -132.43164062 71.9609375 C-133.62903908 73.63497029 -134.81568399 75.31668647 -136 77 C-137 74 -137 74 -136.37011719 72.13745117 C-135.17839774 69.81175483 -133.98423533 67.49104645 -132.75 65.1875 C-132.29906982 64.33961914 -131.84813965 63.49173828 -131.38354492 62.61816406 C-127.04697357 54.69875343 -121.92910878 47.78533101 -116 41 C-115.39671875 40.30777344 -114.7934375 39.61554687 -114.171875 38.90234375 C-106.82942781 31.07871677 -97.68342769 25.1867797 -88.4375 19.875 C-87.4012146 19.27099365 -87.4012146 19.27099365 -86.34399414 18.65478516 C-84.60678226 17.68610842 -82.80620326 16.8329883 -81 16 C-80.01 16.33 -79.02 16.66 -78 17 C-78.02356567 17.89924194 -78.02356567 17.89924194 -78.04760742 18.81665039 C-78.1104413 21.56516877 -78.14914235 24.31353542 -78.1875 27.0625 C-78.21263672 28.00544922 -78.23777344 28.94839844 -78.26367188 29.91992188 C-78.35225688 38.39455362 -76.35406091 44.22868767 -71 51 C-66.96942739 53.4631277 -62.59769973 53.72314814 -58 53 C-33.00789444 45.4953873 -13.95381399 20.93072098 0 0 Z " fill="#B1331A" transform="translate(459,579)"/>
<path d="M0 0 C2.875 2.625 2.875 2.625 3.6875 5.875 C0.59774524 20.13540656 -12.23240474 30.84787949 -23.95703125 38.46484375 C-25.83188715 39.63694928 -27.70688268 40.80883149 -29.58203125 41.98046875 C-35.61773442 45.88374223 -39.61040717 49.75881375 -43.08203125 56.0859375 C-43.42621094 56.59382813 -43.77039063 57.10171875 -44.125 57.625 C-44.785 57.625 -45.445 57.625 -46.125 57.625 C-46.5375 56.655625 -46.95 55.68625 -47.375 54.6875 C-47.95747753 53.332965 -48.54089594 51.9788344 -49.125 50.625 C-49.44984375 49.86832031 -49.7746875 49.11164063 -50.109375 48.33203125 C-50.44453125 47.56246094 -50.7796875 46.79289062 -51.125 46 C-51.5890625 44.92878906 -51.5890625 44.92878906 -52.0625 43.8359375 C-53.09721144 41.57174518 -53.09721144 41.57174518 -54.546875 39.38671875 C-59.54135092 30.64638589 -63.55339689 19.25835633 -62.00390625 9.1796875 C-60.44799627 4.65717581 -57.65833998 1.74398241 -54.125 -1.375 C-53.279375 -2.15875 -52.43375 -2.9425 -51.5625 -3.75 C-37.64435937 -13.02876042 -13.78004306 -7.27682975 0 0 Z " fill="#FBC500" transform="translate(639.125,384.375)"/>
<path d="M0 0 C0.66 0 1.32 0 2 0 C3.70184984 2.42777163 5.27418606 4.8459792 6.8125 7.375 C7.25956299 8.10219238 7.70662598 8.82938477 8.16723633 9.57861328 C15.38409224 21.43628475 15.38409224 21.43628475 17 26 C16 28 16 28 14.71484375 29.578125 C12.74415642 32.36132806 11.30826882 35.24769255 9.79052734 38.29541016 C1.27861259 55.30908628 -10.18851912 70.92073404 -25 83 C-25.69480469 83.58265625 -26.38960937 84.1653125 -27.10546875 84.765625 C-27.79253906 85.31734375 -28.47960937 85.8690625 -29.1875 86.4375 C-30.10595703 87.17806641 -30.10595703 87.17806641 -31.04296875 87.93359375 C-33.48850308 89.2661903 -35.25663765 89.19426227 -38 89 C-38 88.34 -38 87.68 -38 87 C-38.99 86.67 -39.98 86.34 -41 86 C-40.40574219 85.45214844 -39.81148437 84.90429688 -39.19921875 84.33984375 C-27.25618349 72.91687845 -18.72274128 60.04128478 -12 45 C-11.45601562 43.81019531 -10.91203125 42.62039062 -10.3515625 41.39453125 C-4.71294294 28.27114512 -1.33473339 14.2084522 0 0 Z " fill="#AF3319" transform="translate(760,201)"/>
<path d="M0 0 C1.20366211 0.00483398 1.20366211 0.00483398 2.43164062 0.00976562 C3.68170898 0.02233398 3.68170898 0.02233398 4.95703125 0.03515625 C6.22450195 0.04192383 6.22450195 0.04192383 7.51757812 0.04882812 C9.6015928 0.06060222 11.68557102 0.07853735 13.76953125 0.09765625 C13.76953125 0.42765625 13.76953125 0.75765625 13.76953125 1.09765625 C9.80953125 1.09765625 5.84953125 1.09765625 1.76953125 1.09765625 C-0.75252204 13.39266605 1.78390498 21.63215986 8.51953125 32.09765625 C9.133125 33.00515625 9.74671875 33.91265625 10.37890625 34.84765625 C11.76953125 37.09765625 11.76953125 37.09765625 11.76953125 39.09765625 C8.06125927 39.74384218 4.35290283 40.38954216 0.64453125 41.03515625 C-0.92554688 41.30875977 -0.92554688 41.30875977 -2.52734375 41.58789062 C-3.54570312 41.76513672 -4.5640625 41.94238281 -5.61328125 42.125 C-6.59329102 42.29757324 -7.57330078 42.47014648 -8.58300781 42.64794922 C-10.68575695 43.00512959 -12.79700909 43.31218247 -14.91015625 43.6015625 C-16.05871094 43.84712891 -16.05871094 43.84712891 -17.23046875 44.09765625 C-17.56046875 44.75765625 -17.89046875 45.41765625 -18.23046875 46.09765625 C-22.57308908 39.58372576 -23.57692433 33.17516264 -23.54296875 25.53515625 C-23.55908203 24.80619141 -23.57519531 24.07722656 -23.59179688 23.32617188 C-23.59792665 16.51599005 -21.24218521 11.67752394 -16.7578125 6.484375 C-12.25678331 2.39776282 -6.03227145 -0.04278207 0 0 Z " fill="#B03319" transform="translate(368.23046875,541.90234375)"/>
<path d="M0 0 C0.66 0 1.32 0 2 0 C3.24584961 1.43017578 3.24584961 1.43017578 4.65234375 3.4453125 C5.43738281 4.55519531 5.43738281 4.55519531 6.23828125 5.6875 C7.07939453 6.8940625 7.07939453 6.8940625 7.9375 8.125 C11.99979069 13.85894128 16.10387469 19.51728369 20.5 25 C30.23800138 37.20603479 39.32169252 50.02010721 48 63 C48.59554687 63.85980469 49.19109375 64.71960938 49.8046875 65.60546875 C51 68 51 68 50.6875 70.3125 C50.460625 70.869375 50.23375 71.42625 50 72 C49.35998047 70.77990234 49.35998047 70.77990234 48.70703125 69.53515625 C43.46236924 59.92174486 37.21246467 51.47034869 30.45556641 42.87158203 C28.64095287 40.53833357 26.9061668 38.1546092 25.1875 35.75 C20.50371585 29.23692677 15.60197108 22.8885255 10.72143555 16.52246094 C0 2.51481639 0 2.51481639 0 0 Z " fill="#EBC800" transform="translate(743,134)"/>
<path d="M0 0 C0.495 1.485 0.495 1.485 1 3 C-0.66796875 5.3984375 -0.66796875 5.3984375 -3.1875 8.375 C-16.31538087 24.67062392 -26.2976698 44.58443769 -31 65 C-31.66 65 -32.32 65 -33 65 C-32.47131365 58.74149674 -30.99760677 53.55015454 -28.625 47.75 C-28.27268311 46.88592529 -27.92036621 46.02185059 -27.55737305 45.1315918 C-20.56571656 28.46173294 -11.39535625 13.98603343 0 0 Z " fill="#EFD000" transform="translate(434,175)"/>
<path d="M0 0 C0 0.66 0 1.32 0 2 C-19.67512846 2.69022656 -39.30978274 3.16771906 -59 3 C-59 2.67 -59 2.34 -59 2 C-39.3249784 -0.28589463 -19.7711739 -0.2134584 0 0 Z " fill="#ECCB00" transform="translate(638,258)"/>
<path d="M0 0 C0 0.33 0 0.66 0 1 C-1.40076782 1.21934204 -1.40076782 1.21934204 -2.82983398 1.44311523 C-6.28365181 1.98591648 -9.73685277 2.53235392 -13.18969727 3.08129883 C-14.68620987 3.31844577 -16.18295549 3.55412706 -17.67993164 3.78833008 C-19.827611 4.12459368 -21.97440607 4.46606383 -24.12109375 4.80859375 C-25.4145874 5.01282959 -26.70808105 5.21706543 -28.04077148 5.42749023 C-30.87619616 5.68955506 -30.87619616 5.68955506 -32 7 C-34.64376495 7.4947745 -37.28280436 7.94736602 -39.9375 8.375 C-45.7903976 9.35160406 -51.3952825 10.50810635 -57.01953125 12.44921875 C-59 13 -59 13 -63 13 C-63 12.34 -63 11.68 -63 11 C-49.97314038 7.47641604 -36.92192949 4.44912472 -23.625 2.125 C-22.42077393 1.91012939 -21.21654785 1.69525879 -19.97583008 1.47387695 C-13.24958311 0.33774049 -6.82131388 -0.29827409 0 0 Z " fill="#F1CF00" transform="translate(575,261)"/>
<path d="M0 0 C0.66 0 1.32 0 2 0 C1.88305763 1.64642547 1.75590767 3.29212602 1.625 4.9375 C1.55539062 5.85402344 1.48578125 6.77054687 1.4140625 7.71484375 C1.08953885 10.28960214 0.61961792 12.5374007 -0.0234375 15.03125 C-1.43449265 21.16876109 -1.29121455 27.2944541 -1.25 33.5625 C-1.25773437 34.74263672 -1.26546875 35.92277344 -1.2734375 37.13867188 C-1.25923635 43.48303536 -0.81209753 48.92611754 1 55 C1.39624477 56.99589957 1.77423144 58.99560822 2.125 61 C2.29257812 61.94875 2.46015625 62.8975 2.6328125 63.875 C2.81457031 64.926875 2.81457031 64.926875 3 66 C2.01 65.67 1.02 65.34 0 65 C0.061875 64.13375 0.12375 63.2675 0.1875 62.375 C-0.02711138 58.51199516 -1.22825142 56.40175727 -3 53 C-6.40138969 36.51546867 -5.34389351 16.03168052 0 0 Z " fill="#E9B301" transform="translate(384,382)"/>
<path d="M0 0 C-21.13020879 13.60281072 -21.13020879 13.60281072 -26.17578125 12.54296875 C-26.77777344 12.36378906 -27.37976563 12.18460938 -28 12 C-4.28070175 -2.14035088 -4.28070175 -2.14035088 0 0 Z " fill="#9E2E17" transform="translate(302,603)"/>
<path d="M0 0 C-2.23289494 2.23289494 -3.28699637 2.50915214 -6.2890625 3.25390625 C-7.14886719 3.46853516 -8.00867188 3.68316406 -8.89453125 3.90429688 C-9.79558594 4.12150391 -10.69664062 4.33871094 -11.625 4.5625 C-12.50285156 4.78357422 -13.38070313 5.00464844 -14.28515625 5.23242188 C-19.52207514 6.5202526 -24.6397992 7.42019903 -30 8 C-31.67056149 8.31323028 -33.33958925 8.63678515 -35 9 C-34 7 -34 7 -31.84204102 6.13037109 C-28.75274253 5.19760226 -25.66136513 4.2755562 -22.5625 3.375 C-20.97791992 2.88773438 -20.97791992 2.88773438 -19.36132812 2.390625 C-12.75211644 0.45224868 -6.88373208 -0.4678358 0 0 Z " fill="#CF3D1F" transform="translate(339,593)"/>
<path d="M0 0 C0.66 0 1.32 0 2 0 C3.04468964 1.69038702 4.00815224 3.43105545 4.9375 5.1875 C8.16765043 10.94440657 11.92862152 15.74843833 16.35522461 20.63354492 C20.60085677 25.39035687 20.60085677 25.39035687 21 29 C15.96162218 25.27598161 12.41145917 21.12993081 8.8125 16.0625 C8.39693848 15.47774902 7.98137695 14.89299805 7.55322266 14.29052734 C0 3.43333604 0 3.43333604 0 0 Z " fill="#EECE00" transform="translate(485,239)"/>
<path d="M0 0 C0.66 0.33 1.32 0.66 2 1 C-5.26 8.26 -12.52 15.52 -20 23 C-20.66 22.67 -21.32 22.34 -22 22 C-19.65213939 19.45244671 -17.29557543 16.91309815 -14.9375 14.375 C-13.95233398 13.30572266 -13.95233398 13.30572266 -12.94726562 12.21484375 C-8.85219311 7.81717967 -4.63719168 3.82312032 0 0 Z " fill="#291900" transform="translate(245,605)"/>
<path d="M0 0 C0.33 0 0.66 0 1 0 C1.07347656 1.80984375 1.07347656 1.80984375 1.1484375 3.65625 C1.22353532 5.27085306 1.29908003 6.88543539 1.375 8.5 C1.4059375 9.29148437 1.436875 10.08296875 1.46875 10.8984375 C1.72949375 16.20022705 2.60366206 20.88009423 4 26 C4.39624477 27.99589957 4.77423144 29.99560822 5.125 32 C5.29257812 32.94875 5.46015625 33.8975 5.6328125 34.875 C5.81457031 35.926875 5.81457031 35.926875 6 37 C5.01 36.67 4.02 36.34 3 36 C3.061875 35.13375 3.12375 34.2675 3.1875 33.375 C2.97288862 29.51199516 1.77174858 27.40175727 0 24 C-1.24922126 18.80011651 -0.92872833 13.90373945 -0.5625 8.625 C-0.51029297 7.79355469 -0.45808594 6.96210938 -0.40429688 6.10546875 C-0.27561269 4.06991892 -0.13864593 2.03489559 0 0 Z " fill="#CD9901" transform="translate(381,411)"/>
<path d="M0 0 C-4.56741968 4.56741968 -14.60824227 3.05520575 -20.75 3.0625 C-22.50005353 3.04679439 -24.25009878 3.02792396 -26 3 C-26 2.67 -26 2.34 -26 2 C-22.4184073 1.46669495 -18.83454729 0.95053833 -15.25 0.4375 C-14.23421875 0.28603516 -13.2184375 0.13457031 -12.171875 -0.02148438 C-11.1921875 -0.16005859 -10.2125 -0.29863281 -9.203125 -0.44140625 C-7.85202637 -0.63778687 -7.85202637 -0.63778687 -6.47363281 -0.83813477 C-4.04031365 -0.99736203 -2.30785997 -0.73710222 0 0 Z " fill="#C37F00" transform="translate(494,885)"/>
<path d="M0 0 C0 3 0 3 -1.22167969 4.578125 C-1.78274414 5.12984375 -2.34380859 5.6815625 -2.921875 6.25 C-3.53546875 6.8584375 -4.1490625 7.466875 -4.78125 8.09375 C-5.4309375 8.7228125 -6.080625 9.351875 -6.75 10 C-7.70132812 10.94359375 -7.70132812 10.94359375 -8.671875 11.90625 C-14.98022913 18.10946489 -14.98022913 18.10946489 -18 20 C-18.99 19.67 -19.98 19.34 -21 19 C-20.154375 18.29875 -19.30875 17.5975 -18.4375 16.875 C-12.00481004 11.50667785 -5.77438533 6.08840024 0 0 Z " fill="#D69701" transform="translate(445,645)"/>
<path d="M0 0 C0.33 0.99 0.66 1.98 1 3 C-0.17163086 4.99291992 -0.17163086 4.99291992 -1.96484375 7.23046875 C-2.59970703 8.03291016 -3.23457031 8.83535156 -3.88867188 9.66210938 C-4.56478516 10.49548828 -5.24089844 11.32886719 -5.9375 12.1875 C-6.60974609 13.03248047 -7.28199219 13.87746094 -7.97460938 14.74804688 C-9.64071001 16.83953491 -11.31601446 18.92290543 -13 21 C-13.33 20.01 -13.66 19.02 -14 18 C-12.3046875 15.546875 -12.3046875 15.546875 -9.875 12.75 C-6.35468072 8.61458593 -3.07929248 4.46994069 0 0 Z " fill="#EDCD00" transform="translate(461,139)"/>
<path d="M0 0 C2.54194161 0.14188985 5.08347993 0.28839155 7.625 0.4375 C8.69427734 0.49647461 8.69427734 0.49647461 9.78515625 0.55664062 C13.91803682 0.80309681 17.92269024 1.23470053 22 2 C22 2.33 22 2.66 22 3 C7.40318907 4.70159453 7.40318907 4.70159453 0 1 C0 0.67 0 0.34 0 0 Z " fill="#B37300" transform="translate(360,887)"/>
<path d="M0 0 C5.57066814 1.61256183 11.0941154 3.88647249 16 7 C16.33 7.99 16.66 8.98 17 10 C11.42933186 8.38743817 5.9058846 6.11352751 1 3 C0.67 2.01 0.34 1.02 0 0 Z " fill="#9D2E17" transform="translate(297,838)"/>
<path d="M0 0 C0 0.33 0 0.66 0 1 C-0.98395752 1.17390259 -0.98395752 1.17390259 -1.98779297 1.35131836 C-4.95077449 1.87683919 -7.91288654 2.40710918 -10.875 2.9375 C-11.90753906 3.11990234 -12.94007813 3.30230469 -14.00390625 3.49023438 C-14.99003906 3.66748047 -15.97617187 3.84472656 -16.9921875 4.02734375 C-18.35899658 4.27085571 -18.35899658 4.27085571 -19.75341797 4.51928711 C-22.02194696 4.90673787 -22.02194696 4.90673787 -24 6 C-26.00800456 5.71887936 -28.01014051 5.38932033 -30 5 C-26.05297007 2.55963203 -21.75096707 2.09574309 -17.25 1.375 C-16.4765625 1.2409375 -15.703125 1.106875 -14.90625 0.96875 C-9.87177956 0.14093439 -5.10082947 -0.12810302 0 0 Z " fill="#952B15" transform="translate(572,288)"/>
<path d="M0 0 C0.66 0.33 1.32 0.66 2 1 C-3.28 6.28 -8.56 11.56 -14 17 C-14 11.79027084 -9.49956486 8.58109594 -6 5 C-4.05399166 3.22905099 -2.08162714 1.61326103 0 0 Z " fill="#1E0804" transform="translate(344,631)"/>
<path d="M0 0 C0.66 0 1.32 0 2 0 C0.60173536 5.59305858 -2.24087492 9.71990921 -6 14 C-6.99 14.495 -6.99 14.495 -8 15 C-8 14.01 -8 13.02 -8 12 C-7.34 12 -6.68 12 -6 12 C-5.7525 11.13375 -5.505 10.2675 -5.25 9.375 C-3.92199976 5.78939936 -2.31369152 3.03672013 0 0 Z " fill="#FFA302" transform="translate(947,732)"/>
<path d="M0 0 C0.99 0.33 1.98 0.66 3 1 C-1.81776765 11.74259681 -1.81776765 11.74259681 -7 15 C-5.63408831 11.45756548 -4.09068516 8.07372071 -2.375 4.6875 C-1.70597656 3.36298828 -1.70597656 3.36298828 -1.0234375 2.01171875 C-0.68570313 1.34785156 -0.34796875 0.68398438 0 0 Z " fill="#D59E02" transform="translate(680,758)"/>
<path d="M0 0 C1.875 0.625 1.875 0.625 4 2 C5.25 5.125 5.25 5.125 6 8 C3 7 3 7 1 5 C-0.65 5.66 -2.3 6.32 -4 7 C-2.68 4.69 -1.36 2.38 0 0 Z " fill="#DCA101" transform="translate(474,608)"/>
<path d="M0 0 C5.1588796 2.79725916 10.17342499 5.658525 15 9 C14.34 9.66 13.68 10.32 13 11 C11.01443758 9.73918284 9.03671263 8.46601576 7.0625 7.1875 C5.96035156 6.47980469 4.85820312 5.77210938 3.72265625 5.04296875 C1 3 1 3 0 0 Z " fill="#E89600" transform="translate(265,849)"/>
<path d="M0 0 C0.33 0 0.66 0 1 0 C1.06058594 0.67546875 1.12117188 1.3509375 1.18359375 2.046875 C1.26738281 2.93890625 1.35117187 3.8309375 1.4375 4.75 C1.51871094 5.63171875 1.59992188 6.5134375 1.68359375 7.421875 C1.92025966 9.9180014 1.92025966 9.9180014 2.5625 11.9375 C3.16862488 14.79494586 2.84610989 17.35087665 2.5625 20.25 C2.40974609 21.86648437 2.40974609 21.86648437 2.25390625 23.515625 C2.17011719 24.33546875 2.08632813 25.1553125 2 26 C1.67 26 1.34 26 1 26 C0.28038418 17.31320899 -0.14368684 8.71700174 0 0 Z " fill="#D2B500" transform="translate(471,157)"/>
<path d="M0 0 C0.66 0.33 1.32 0.66 2 1 C-2.29 5.29 -6.58 9.58 -11 14 C-11 9.82308582 -8.77013484 7.86318847 -6 5 C-4.05228995 3.24842937 -2.05675499 1.62627139 0 0 Z " fill="#1F0804" transform="translate(571,362)"/>
<path d="M0 0 C7.48291572 6.15034169 7.48291572 6.15034169 10 10 C7 10 7 10 5.17578125 8.57421875 C4.56089844 7.95160156 3.94601563 7.32898438 3.3125 6.6875 C2.37857422 5.76517578 2.37857422 5.76517578 1.42578125 4.82421875 C0 3 0 3 0 0 Z " fill="#E38E00" transform="translate(241,828)"/>
<path d="M0 0 C0.93045933 2.55144824 1.08564091 3.74006478 0.22265625 6.359375 C-0.16019531 7.14828125 -0.54304687 7.9371875 -0.9375 8.75 C-1.50791016 9.94882812 -1.50791016 9.94882812 -2.08984375 11.171875 C-2.39019531 11.77515625 -2.69054687 12.3784375 -3 13 C-3.66 12.01 -4.32 11.02 -5 10 C-4.01 9.67 -3.02 9.34 -2 9 C-2 8.34 -2 7.68 -2 7 C-2.66 7 -3.32 7 -4 7 C-2.79618552 4.50638429 -1.54571278 2.31856917 0 0 Z " fill="#9C2D16" transform="translate(789,403)"/>
<path d="M0 0 C0.99 0.33 1.98 0.66 3 1 C4.1875 3.5625 4.1875 3.5625 5 6 C-0.75 5.25 -0.75 5.25 -3 3 C-2.01 2.67 -1.02 2.34 0 2 C0 1.34 0 0.68 0 0 Z " fill="#CC9D00" transform="translate(423,525)"/>
<path d="M0 0 C6.75 0.75 6.75 0.75 9 3 C6 4.5 6 4.5 3 6 C0 2.25 0 2.25 0 0 Z " fill="#DDAE00" transform="translate(621,491)"/>
<path d="M0 0 C-3.36423277 2.96052484 -6.69159287 3.92289822 -11 5 C-10 2 -10 2 -7.75 0.8125 C-5.00208853 0.00061706 -2.84552111 -0.16260121 0 0 Z " fill="#A12F17" transform="translate(559,838)"/>
<path d="M0 0 C2.64465038 3.1254959 3.84414715 6.08788267 5 10 C2 9 2 9 0.25 6.125 C-1 3 -1 3 0 0 Z " fill="#C79601" transform="translate(405,490)"/>
<path d="M0 0 C-3.44833324 2.05257931 -5.31661591 3.0632763 -9.375 2.6875 C-10.24125 2.460625 -11.1075 2.23375 -12 2 C-7.72170329 -0.29194467 -4.74957752 -1.52664992 0 0 Z " fill="#C98700" transform="translate(525,878)"/>
<path d="M0 0 C1.45606519 4.52092968 0.27032841 7.51648796 -1 12 C-1.99 12 -2.98 12 -4 12 C-3.52309796 10.37433394 -3.04340334 8.74948689 -2.5625 7.125 C-2.29566406 6.22007812 -2.02882813 5.31515625 -1.75390625 4.3828125 C-1 2 -1 2 0 0 Z " fill="#862713" transform="translate(528,727)"/>
<path d="M0 0 C0.99 0.33 1.98 0.66 3 1 C3.73046875 3.06640625 3.73046875 3.06640625 4.1875 5.5625 C4.34605469 6.38878906 4.50460937 7.21507812 4.66796875 8.06640625 C4.77753906 8.70449219 4.88710938 9.34257812 5 10 C2.08772731 6.71195019 0.50298788 4.40114397 0 0 Z " fill="#D4B000" transform="translate(480,229)"/>
<path d="M0 0 C0.66 0 1.32 0 2 0 C0.55049545 3.7910119 -1.15172566 7.3874638 -3 11 C-3.75 9.4375 -3.75 9.4375 -4 7 C-2.86915563 4.49713591 -1.47860484 2.32992278 0 0 Z " fill="#E4C101" transform="translate(420,194)"/>
<path d="M0 0 C0.66 0 1.32 0 2 0 C5.07692308 6.4 5.07692308 6.4 4.6875 9.4375 C4.460625 9.953125 4.23375 10.46875 4 11 C3.67 9.35 3.34 7.7 3 6 C2.34 6 1.68 6 1 6 C0.67 4.02 0.34 2.04 0 0 Z " fill="#B5341A" transform="translate(663,633)"/>
<path d="M0 0 C8.57142857 0.85714286 8.57142857 0.85714286 12 3 C8.62182575 3.84454356 6.32534757 4.10844919 3 3 C3 2.34 3 1.68 3 1 C2.01 0.67 1.02 0.34 0 0 Z " fill="#D03D1E" transform="translate(687,291)"/>
<path d="M0 0 C0.66 0.33 1.32 0.66 2 1 C1.67 4.3 1.34 7.6 1 11 C-1.26609984 6.46780033 -0.92735976 4.82227075 0 0 Z " fill="#D8B100" transform="translate(400,239)"/>
<path d="M0 0 C2.6855594 2.6855594 3.06049974 5.37621328 4 9 C3.01 8.67 2.02 8.34 1 8 C-0.25 5.0625 -0.25 5.0625 -1 2 C-0.67 1.34 -0.34 0.68 0 0 Z " fill="#C73A1D" transform="translate(650,597)"/>
<path d="M0 0 C0.33 0 0.66 0 1 0 C1.25 6.625 1.25 6.625 -1 10 C-1.66 10 -2.32 10 -3 10 C-2.01 6.7 -1.02 3.4 0 0 Z " fill="#BF9C02" transform="translate(813,399)"/>
<path d="M0 0 C2.31 0.33 4.62 0.66 7 1 C3.09971775 3.60018816 -0.47434569 3.15085514 -5 3 C-5 2.67 -5 2.34 -5 2 C-3.35 2 -1.7 2 0 2 C0 1.34 0 0.68 0 0 Z " fill="#702010" transform="translate(694,465)"/>
<path d="M0 0 C2.95183101 2.95183101 3.08663988 5.95511947 4 10 C3.34 9.67 2.68 9.34 2 9 C2 8.34 2 7.68 2 7 C1.34 7 0.68 7 0 7 C0 4.69 0 2.38 0 0 Z " fill="#BC8B01" transform="translate(387,449)"/>
<path d="M0 0 C3.83736322 0.95934081 4.59660228 1.23609263 7 4 C6.67 4.99 6.34 5.98 6 7 C4.02 4.69 2.04 2.38 0 0 Z " fill="#E0C200" transform="translate(499,261)"/>
<path d="M0 0 C0.33 0 0.66 0 1 0 C2.0070238 5.03511899 1.97387813 8.23947038 0 13 C-0.33 13 -0.66 13 -1 13 C-1.07654536 8.48382401 -1.10228696 4.40914783 0 0 Z " fill="#7E2412" transform="translate(424,254)"/>
<path d="M0 0 C-0.33 0.99 -0.66 1.98 -1 3 C-4.5625 4.6875 -4.5625 4.6875 -8 6 C-6.72879117 2.18637351 -4.19078006 0 0 0 Z " fill="#E9A201" transform="translate(480,755)"/>
<path d="M0 0 C0.66 0.99 1.32 1.98 2 3 C0.625 5.5 0.625 5.5 -1 8 C-1.66 8 -2.32 8 -3 8 C-1.125 2.25 -1.125 2.25 0 0 Z " fill="#CAA202" transform="translate(808,412)"/>
</svg>
